<svg width="224" height="68" viewBox="0 0 224 68" fill="none" xmlns="http://www.w3.org/2000/svg">
<g filter="url(#filter0_i_1_9)">
<path d="M115.24 60.52L111.54 55.28H113.54L116.3 59.32L119.04 55.28H121.02L117.32 60.52L121.22 66H119.22L116.3 61.72L113.34 66H111.36L115.24 60.52ZM127.346 55.1C128.653 55.1 129.619 55.3867 130.246 55.96C130.873 56.5333 131.186 57.4467 131.186 58.7V66H129.906L129.566 64.48H129.486C129.179 64.8667 128.859 65.1933 128.526 65.46C128.206 65.7133 127.833 65.9 127.406 66.02C126.993 66.14 126.486 66.2 125.886 66.2C125.246 66.2 124.666 66.0867 124.146 65.86C123.639 65.6333 123.239 65.2867 122.946 64.82C122.653 64.34 122.506 63.74 122.506 63.02C122.506 61.9533 122.926 61.1333 123.766 60.56C124.606 59.9733 125.899 59.6533 127.646 59.6L129.466 59.54V58.9C129.466 58.0067 129.273 57.3867 128.886 57.04C128.499 56.6933 127.953 56.52 127.246 56.52C126.686 56.52 126.153 56.6067 125.646 56.78C125.139 56.94 124.666 57.1267 124.226 57.34L123.686 56.02C124.153 55.7667 124.706 55.5533 125.346 55.38C125.986 55.1933 126.653 55.1 127.346 55.1ZM127.866 60.82C126.533 60.8733 125.606 61.0867 125.086 61.46C124.579 61.8333 124.326 62.36 124.326 63.04C124.326 63.64 124.506 64.08 124.866 64.36C125.239 64.64 125.713 64.78 126.286 64.78C127.193 64.78 127.946 64.5333 128.546 64.04C129.146 63.5333 129.446 62.76 129.446 61.72V60.76L127.866 60.82ZM140.837 55.28H142.757L138.177 60.44L143.137 66H141.097L136.257 60.56V66H134.497V55.28H136.257V60.48L140.837 55.28ZM149.143 55.1C150.449 55.1 151.416 55.3867 152.043 55.96C152.669 56.5333 152.983 57.4467 152.983 58.7V66H151.703L151.363 64.48H151.283C150.976 64.8667 150.656 65.1933 150.323 65.46C150.003 65.7133 149.629 65.9 149.203 66.02C148.789 66.14 148.283 66.2 147.683 66.2C147.043 66.2 146.463 66.0867 145.943 65.86C145.436 65.6333 145.036 65.2867 144.743 64.82C144.449 64.34 144.303 63.74 144.303 63.02C144.303 61.9533 144.723 61.1333 145.563 60.56C146.403 59.9733 147.696 59.6533 149.443 59.6L151.263 59.54V58.9C151.263 58.0067 151.069 57.3867 150.683 57.04C150.296 56.6933 149.749 56.52 149.043 56.52C148.483 56.52 147.949 56.6067 147.443 56.78C146.936 56.94 146.463 57.1267 146.023 57.34L145.483 56.02C145.949 55.7667 146.503 55.5533 147.143 55.38C147.783 55.1933 148.449 55.1 149.143 55.1ZM149.663 60.82C148.329 60.8733 147.403 61.0867 146.883 61.46C146.376 61.8333 146.123 62.36 146.123 63.04C146.123 63.64 146.303 64.08 146.663 64.36C147.036 64.64 147.509 64.78 148.083 64.78C148.989 64.78 149.743 64.5333 150.343 64.04C150.943 63.5333 151.243 62.76 151.243 61.72V60.76L149.663 60.82ZM163.694 56.76H160.194V66H158.454V56.76H154.994V55.28H163.694V56.76ZM174.93 60.62C174.93 61.5133 174.81 62.3067 174.57 63C174.343 63.68 174.01 64.26 173.57 64.74C173.143 65.22 172.617 65.5867 171.99 65.84C171.377 66.08 170.69 66.2 169.93 66.2C169.223 66.2 168.57 66.08 167.97 65.84C167.37 65.5867 166.85 65.22 166.41 64.74C165.97 64.26 165.623 63.68 165.37 63C165.13 62.3067 165.01 61.5133 165.01 60.62C165.01 59.4333 165.21 58.4333 165.61 57.62C166.01 56.7933 166.583 56.1667 167.33 55.74C168.077 55.3 168.963 55.08 169.99 55.08C170.963 55.08 171.817 55.3 172.55 55.74C173.297 56.1667 173.877 56.7933 174.29 57.62C174.717 58.4333 174.93 59.4333 174.93 60.62ZM166.83 60.62C166.83 61.46 166.937 62.1933 167.15 62.82C167.377 63.4333 167.723 63.9067 168.19 64.24C168.657 64.5733 169.25 64.74 169.97 64.74C170.69 64.74 171.283 64.5733 171.75 64.24C172.217 63.9067 172.557 63.4333 172.77 62.82C172.997 62.1933 173.11 61.46 173.11 60.62C173.11 59.7667 172.997 59.04 172.77 58.44C172.543 57.84 172.197 57.38 171.73 57.06C171.277 56.7267 170.683 56.56 169.95 56.56C168.857 56.56 168.063 56.92 167.57 57.64C167.077 58.36 166.83 59.3533 166.83 60.62ZM179.48 55.28V59.74H185.3V55.28H187.06V66H185.3V61.22H179.48V66H177.72V55.28H179.48Z" fill="#474747"/>
<path d="M103.636 36V13.392H106.444V36H103.636ZM110.306 15.804V13.392H127.91V15.804H119.864L120.494 15.156V36H117.686V15.156L118.316 15.804H110.306ZM146.496 36.432C144.828 36.432 143.436 36.198 142.32 35.73C141.204 35.25 140.358 34.596 139.782 33.768C139.206 32.928 138.9 31.968 138.864 30.888H141.564C141.624 31.98 142.062 32.802 142.878 33.354C143.706 33.894 144.828 34.164 146.244 34.164C146.988 34.164 147.672 34.044 148.296 33.804C148.92 33.564 149.418 33.234 149.79 32.814C150.162 32.394 150.348 31.92 150.348 31.392C150.348 30.72 150.102 30.192 149.61 29.808C149.118 29.424 148.332 29.088 147.252 28.8L143.904 27.72C142.452 27.264 141.336 26.64 140.556 25.848C139.788 25.044 139.404 24.084 139.404 22.968C139.404 21.576 140.016 20.46 141.24 19.62C142.464 18.78 144.072 18.36 146.064 18.36C148.176 18.36 149.814 18.792 150.978 19.656C152.142 20.52 152.748 21.6 152.796 22.896H150.024C149.916 22.14 149.532 21.57 148.872 21.186C148.212 20.79 147.276 20.592 146.064 20.592C144.9 20.592 143.988 20.856 143.328 21.384C142.68 21.9 142.356 22.476 142.356 23.112C142.356 24.3 143.376 25.176 145.416 25.74L148.836 26.892C150.312 27.336 151.44 27.918 152.22 28.638C153.012 29.358 153.408 30.276 153.408 31.392C153.408 32.256 153.126 33.072 152.562 33.84C151.998 34.608 151.2 35.232 150.168 35.712C149.136 36.192 147.912 36.432 146.496 36.432ZM164.51 36.432C163.574 36.432 162.734 36.252 161.99 35.892C161.246 35.532 160.658 34.992 160.226 34.272C159.794 33.552 159.578 32.652 159.578 31.572V14.004H162.35V31.5C162.35 33.276 163.178 34.164 164.834 34.164C165.326 34.164 165.8 34.11 166.256 34.002C166.724 33.894 167.246 33.732 167.822 33.516L168.218 35.532C167.606 35.796 166.994 36.012 166.382 36.18C165.782 36.348 165.158 36.432 164.51 36.432ZM156.806 20.736V18.792H167.786V20.736H156.806ZM178.729 36.432C177.241 36.432 175.909 36.054 174.733 35.298C173.569 34.53 172.645 33.468 171.961 32.112C171.289 30.756 170.953 29.196 170.953 27.432C170.953 25.548 171.289 23.928 171.961 22.572C172.633 21.216 173.551 20.178 174.715 19.458C175.891 18.726 177.229 18.36 178.729 18.36C180.037 18.36 181.153 18.624 182.077 19.152C183.001 19.68 183.745 20.394 184.309 21.294C184.873 22.194 185.263 23.214 185.479 24.354C185.707 25.482 185.773 26.652 185.677 27.864H173.221V26.136H183.823L182.995 26.676C183.031 25.968 182.989 25.26 182.869 24.552C182.761 23.844 182.551 23.196 182.239 22.608C181.927 22.008 181.489 21.528 180.925 21.168C180.361 20.808 179.641 20.628 178.765 20.628C177.661 20.628 176.737 20.91 175.993 21.474C175.249 22.038 174.691 22.782 174.319 23.706C173.947 24.618 173.761 25.608 173.761 26.676V27.828C173.761 29.028 173.941 30.102 174.301 31.05C174.673 31.998 175.225 32.748 175.957 33.3C176.689 33.852 177.613 34.128 178.729 34.128C179.845 34.128 180.763 33.858 181.483 33.318C182.203 32.778 182.641 31.98 182.797 30.924H185.713C185.533 32.064 185.125 33.048 184.489 33.876C183.853 34.692 183.043 35.322 182.059 35.766C181.075 36.21 179.965 36.432 178.729 36.432ZM199.057 36.432C197.797 36.432 196.699 36.144 195.763 35.568C194.839 34.992 194.125 34.152 193.621 33.048C193.117 31.932 192.865 30.576 192.865 28.98H194.053C194.053 30.048 194.275 30.948 194.719 31.68C195.163 32.412 195.739 32.97 196.447 33.354C197.167 33.726 197.929 33.912 198.733 33.912C199.597 33.912 200.425 33.666 201.217 33.174C202.009 32.67 202.657 31.932 203.161 30.96C203.665 29.988 203.917 28.788 203.917 27.36C203.917 25.992 203.683 24.822 203.215 23.85C202.759 22.878 202.141 22.134 201.361 21.618C200.581 21.102 199.717 20.844 198.769 20.844C197.953 20.844 197.185 21.042 196.465 21.438C195.745 21.834 195.163 22.416 194.719 23.184C194.275 23.94 194.053 24.876 194.053 25.992H192.865C192.865 24.324 193.141 22.926 193.693 21.798C194.245 20.658 194.995 19.8 195.943 19.224C196.891 18.648 197.953 18.36 199.129 18.36C200.473 18.36 201.727 18.72 202.891 19.44C204.055 20.16 204.997 21.192 205.717 22.536C206.437 23.88 206.797 25.488 206.797 27.36C206.797 29.256 206.431 30.882 205.699 32.238C204.979 33.594 204.031 34.632 202.855 35.352C201.679 36.072 200.413 36.432 199.057 36.432ZM191.245 44.46V18.792H193.585L194.053 22.824V44.46H191.245Z" fill="#474747"/>
<rect x="92" y="47" width="122" height="1" fill="black"/>
<rect width="55.2061" height="46.9658" rx="13.3333" transform="matrix(0.976185 -0.216942 -0.307507 0.951546 41.1087 23.3098)" fill="#9E77ED"/>
<rect width="55.2061" height="46.9658" rx="13.3333" transform="matrix(0.976185 -0.216942 -0.307507 0.951546 27.4423 11.9765)" fill="#6941C6"/>
</g>
<defs>
<filter id="filter0_i_1_9" x="0" y="0" width="224" height="72" filterUnits="userSpaceOnUse" color-interpolation-filters="sRGB">
<feFlood flood-opacity="0" result="BackgroundImageFix"/>
<feBlend mode="normal" in="SourceGraphic" in2="BackgroundImageFix" result="shape"/>
<feColorMatrix in="SourceAlpha" type="matrix" values="0 0 0 0 0 0 0 0 0 0 0 0 0 0 0 0 0 0 127 0" result="hardAlpha"/>
<feOffset dy="4"/>
<feGaussianBlur stdDeviation="5"/>
<feComposite in2="hardAlpha" operator="arithmetic" k2="-1" k3="1"/>
<feColorMatrix type="matrix" values="0 0 0 0 0 0 0 0 0 0 0 0 0 0 0 0 0 0 0.25 0"/>
<feBlend mode="normal" in2="shape" result="effect1_innerShadow_1_9"/>
</filter>
</defs>
</svg>
